<?xml version="1.0" standalone="no"?>
<!DOCTYPE svg PUBLIC "-//W3C//DTD SVG 20010904//EN"
 "http://www.w3.org/TR/2001/REC-SVG-20010904/DTD/svg10.dtd">
<svg version="1.0" xmlns="http://www.w3.org/2000/svg"
 width="1024.000000pt" height="1024.000000pt" viewBox="0 0 1024.000000 1024.000000"
 preserveAspectRatio="xMidYMid meet">

<g transform="translate(0.000000,1024.000000) scale(0.100000,-0.100000)"
fill="#000000" stroke="none">
<path d="M0 5120 l0 -5120 5120 0 5120 0 0 5120 0 5120 -5120 0 -5120 0 0
-5120z m7260 2255 c353 -58 646 -203 880 -435 105 -104 196 -232 240 -338 53
-126 60 -189 60 -549 l0 -328 -479 0 -479 0 -7 45 c-10 62 -49 162 -84 213
-62 90 -147 151 -271 193 -69 23 -259 26 -335 5 -134 -38 -256 -134 -309 -242
-54 -111 -55 -138 -55 -1069 -1 -928 0 -935 55 -1047 55 -112 174 -209 304
-247 73 -22 228 -22 310 -1 222 58 355 215 385 457 l6 47 480 1 480 0 -3 -382
c-4 -360 -6 -387 -26 -456 -46 -150 -129 -288 -256 -421 -242 -253 -560 -402
-958 -451 -128 -16 -463 -8 -583 14 -589 108 -1068 516 -1223 1042 -58 195
-57 173 -57 1489 0 1329 -2 1282 61 1470 178 534 735 944 1361 1005 121 12
388 4 503 -15z m-3973 -92 c17 -54 68 -217 113 -363 143 -466 221 -703 229
-694 10 12 28 67 121 374 67 218 133 431 231 748 l11 32 518 0 c285 0 525 -3
534 -6 15 -6 16 -236 16 -2510 l0 -2504 -550 0 -550 0 -1 1218 0 1217 -25 -65
c-13 -36 -72 -216 -129 -400 -145 -462 -178 -561 -182 -557 -2 3 -76 229 -164
503 -88 274 -165 503 -170 508 -5 6 -9 -461 -9 -1207 l0 -1217 -544 0 -543 0
-7 31 c-8 41 -8 4882 0 4943 l7 46 531 0 532 0 31 -97z"/>
</g>
</svg>
